# xmcd
#
# Track frame offsets: 
#        150
#        17347
#        41297
#        58880
#        82205
#        98309
#        121147
#        142426
#        168281
#        184537
#        202939
#        219986
#
# Disc length: 3176 seconds
#
# Revision: 4
# Processed by: cddbd v1.5.2PL0 Copyright (c) Steve Scherf et al.
# Submitted via: ExactAudioCopy v0.99pb5
#
DISCID=990c660c
DTITLE=Magna Canta - Gregorian Mystics [CD1 of 2)
DYEAR=2004
DGENRE=New Age
TTITLE0=Hymn
TTITLE1=Aethera Et Terra
TTITLE2=Silentium
TTITLE3=Ritmo
TTITLE4=Offizium
TTITLE5=Agnus Dei
TTITLE6=Gregoria
TTITLE7=Alleluia
TTITLE8=Recordare
TTITLE9=Cantandus
TTITLE10=Spritus Sanctus
TTITLE11=Sancta Maria
EXTD=XYZ Records
EXTT0=
EXTT1=
EXTT2=
EXTT3=
EXTT4=
EXTT5=
EXTT6=
EXTT7=
EXTT8=
EXTT9=
EXTT10=
EXTT11=
PLAYORDER=
